<?xml version="1.0" encoding="UTF-8"?>
<svg id="Layer_1" xmlns="http://www.w3.org/2000/svg" version="1.1" viewBox="0 0 1280 1280">
  <!-- Generator: Adobe Illustrator 30.2.1, SVG Export Plug-In . SVG Version: 2.1.1 Build 1)  -->
  <defs>
    <style>
      .st0 {
        fill: #fff;
      }
    </style>
  </defs>
  <g>
    <path class="st0" d="M992.1,1034.1c-57.8-12.9-75.7-58.7-75.7-73.9v-220.3c0-8.3-5-18.9-5-18.9l57.4-.2v56.9h40.9v55.9h-33.9v115.6c.3,4.7,3.2,21.1,29.2,26.8l2.6.6-12.9,58-2.6-.6Z"/>
    <path class="st0" d="M271.2,1034.1v-208.8l2-.6s4.6-2.2,14.8-19c16.3-26.8,48.7-42.7,86.8-42.7s82.9,29.3,98.6,70.2l19.7-20.9c19.8-30.1,53.7-48.1,90.9-48.1s75.4,20.6,94.1,53.9l1,1.8-76.1,73.9h-53.9c9.4,8.6,21.9,13.4,35.2,13.4,10.2,0,18.4-.3,25.6-2.9,4.2-1.9,8.3-4.5,12.4-7.8l4.3-3.7,2.9-2.9,82.9-80.6c19.9-28.2,53.3-45.1,89.4-45.1s76.4,20.2,94.7,52.8l.3.6c2.7,5.4,6.6,10.3,11.7,14.5l1,.8v128.6h-60v-8.2c-14.8,6.9-31.2,10.5-47.7,10.5-44.1,0-83.7-25.4-99.7-63.6-39.2,38.4-40.1,39.1-40.4,39.4-23.8,19.5-41.7,29.4-73.5,29.4s-19.2-1.1-28.5-3.4l-2.1-.5h0c-33.1-8.7-60.7-32.3-73.2-62.7-2.8,2.9-7.5,7.5-15.7,15.1-9.4,8.8-18.9,17.4-19.5,17.9l-.5.4c-15.1,15-34.2,24.9-55.3,28.7-6.5,1.4-13.1,2.1-19.7,2.1s-5.2-.1-7.9-.3c-16-1.4-25.3-4.2-34.3-8.6v76.3h-60.2ZM374.8,817.6c-27.1,0-49.1,21.1-49.1,47s22,47,49.1,47,49.1-21.1,49.1-47-22-47-49.1-47ZM801.7,819.9c-26.2,0-47.6,19.8-47.6,44.1s21.3,44.1,47.6,44.1,47.6-19.8,47.6-44.1-21.3-44.1-47.6-44.1ZM624.8,846.2c-8.1-16-23.1-25.4-40.9-25.4s-34.9,10-42.8,25.4h83.6Z"/>
  </g>
  <g>
    <path class="st0" d="M865.8,385.2c-8.4-83.8-94-122.6-112.2-129.4-22.9-8.6-57.4-9.4-58.2-9.4h-39c-6.3,0-11.4,5.1-11.4,11.4v59.2c-.2,1.9-.9,5.1-3.7,7.9l-1.2,1.2-1.2,1.2c-2.8,2.8-6.2,3.6-8,3.7h-58.1c-1.9-.2-4.7-1-7.2-3.5l-.9-.9-.9-.9c-2.6-2.8-3.3-5.9-3.5-7.7v-60.4c0-6.3-5.1-11.4-11.4-11.4h-61.8c-6.3,0-11.4,5.1-11.4,11.4v61.8c0,6.3,5.1,11.4,11.4,11.4h57.8,0c0,0,5.2-.4,9.4,3.8l1.2,1.2,1.2,1.2c4.2,4.2,3.8,9.4,3.8,9.4h0s0,55.9,0,55.9c-.1,1.8-.8,5-3.5,7.8l-.9.9-.9.9c-3,2.8-6.3,3.4-8.1,3.5h-59.9c-6.3,0-11.4,5.1-11.4,11.4v61.8c0,6.3,5.1,11.4,11.4,11.4h59.7c1.9.3,4.9,1.1,7.5,3.7l1.2,1.2,1.2,1.2c4.2,4.2,3.8,9.4,3.8,9.4h0s0,39.8,0,39.8v121.9s-.3,14.2,3.6,20.5c-1.9-7.8-.6-25.6-.6-25.6.7-46.3,30.8-69.5,51-79.2,20-9.7,49.7-8.2,50.3-8.2,2.6-.1,5.2-.2,8-.2h34c12.3,0,78-7.2,118.2-55.8,53-63.9,44.1-112.8,41-143.8ZM784.4,431.1c-3.5,32.5-31.2,50.9-44.7,59.7-13.5,8.8-47,9.8-47,9.8h-55.6c-1.1-.3-2.2-.5-3.4-.5h-60.3c-1.8-.2-5-.8-7.7-3.5l-.9-.9-.9-.9c-2.6-2.8-3.3-5.9-3.5-7.7v-57c0-1.7.6-5.4,3.8-8.5l1.2-1.2,1.2-1.2c3-3,6.5-3.6,8.2-3.7h58.9c6.3,0,11.4-5.1,11.4-11.4v-58.7h0s-.5-5,3.5-9.3l.9-.9.9-.9c3.2-3,6.8-3.5,8.4-3.6h.6c.2,0,.3,0,.3,0h0s26.9,0,50.5,0,51.1,17,64.9,42.3c8.2,15.2,12.8,26,9.3,57.8Z"/>
    <path class="st0" d="M566.8,646.7c-3.3,10.4-4.3,28.4-4.3,38.2,0,5.6,1.3,12.7,1.3,12.7,1.4,3.1,6.9,10.9,16.3,10.9h46.8c7.2,0,19-3.5,19-21v-77.1c0-7.3,2.2-22.5,18.9-25.3,0,0,0,0,0,0-39.6-.9-57.2,8.9-72.2,22.3-17,15.2-23.1,31-25.7,39.3Z"/>
  </g>
</svg>