<?xml version="1.0" encoding="UTF-8"?>
<svg id="Layer_1" xmlns="http://www.w3.org/2000/svg" xmlns:xlink="http://www.w3.org/1999/xlink" version="1.1" viewBox="0 0 1280 1280">
  <!-- Generator: Adobe Illustrator 30.2.1, SVG Export Plug-In . SVG Version: 2.1.1 Build 1)  -->
  <defs>
    <style>
      .st0 {
        fill: none;
      }

      .st1 {
        fill: url(#linear-gradient);
      }

      .st2 {
        fill: #00add0;
      }
    </style>
    <linearGradient id="linear-gradient" x1="547.3" y1="974.4" x2="547.3" y2="831.3" gradientUnits="userSpaceOnUse">
      <stop offset=".3" stop-color="#00add0"/>
      <stop offset="1" stop-color="#005a92"/>
    </linearGradient>
  </defs>
  <path class="st0" d="M689.1,430.5h-76,0s-.2,0-.5,0h-.8c-2.3,0-7.5.7-12.1,5.1l-1.2,1.2-1.2,1.2c-5.8,6-5.1,13.3-5.1,13.3h0s0,84,0,84c0,9-7.3,16.3-16.3,16.3h-84.3c-2.6.2-7.6,1.1-11.8,5.3l-1.7,1.7-1.7,1.7c-4.5,4.5-5.3,9.7-5.4,12.2v81.6c.2,2.6,1.2,7.1,5,11l1.2,1.2,1.2,1.2c4,3.8,8.5,4.8,11.1,5h86.3c1.7,0,3.3.3,4.9.7h79.6s47.9-1.4,67.2-14.1c19.3-12.7,59-38.9,64-85.5,5-45.6-1.3-61.2-13.3-82.8-11.7-21.1-44.4-51.9-89.2-60.6Z"/>
  <path class="st2" d="M908.3,508c-12-119.9-134.5-175.5-160.6-185.2-32.8-12.3-82.2-13.5-83.3-13.5h-55.8c-9,0-16.3,7.3-16.3,16.3v84.8c-.3,2.7-1.3,7.3-5.3,11.3l-1.7,1.7-1.7,1.7c-4.1,4.1-8.8,5.1-11.5,5.3h-83.1c-2.7-.3-6.7-1.5-10.4-4.9l-1.2-1.2-1.2-1.2c-3.8-3.9-4.8-8.4-5-11v-86.4c0-9-7.3-16.3-16.3-16.3h-88.5c-9,0-16.3,7.3-16.3,16.3v88.5c0,9,7.3,16.3,16.3,16.3h82.7-.1c0,0,7.5-.5,13.5,5.5l1.7,1.7,1.7,1.7c6,6,5.4,13.5,5.4,13.5h0s0,80.1,0,80.1c-.2,2.6-1.1,7.2-5,11.2l-1.2,1.2-1.2,1.2c-4.2,4.1-9,4.9-11.6,5.1h-85.8c-9,0-16.3,7.3-16.3,16.3v88.5c0,9,7.3,16.3,16.3,16.3h85.4c2.7.4,7,1.5,10.7,5.2l1.7,1.7,1.7,1.7c6,6,5.4,13.5,5.4,13.5h0s0,57,0,57v174.6s-.4,20.3,5.1,29.4c-2.8-11.2-.9-36.6-.9-36.6,1-66.2,44.1-99.4,73.1-113.4,28.7-13.8,71.1-11.7,72-11.7,3.7-.2,7.5-.3,11.4-.3h48.6c17.6,0,111.6-10.4,169.2-79.9,75.9-91.5,63.1-161.4,58.6-205.9ZM791.7,573.8c-5.1,46.6-44.7,72.8-64,85.5-19.3,12.7-67.2,14.1-67.2,14.1h-79.6c-1.5-.5-3.2-.7-4.9-.7h-86.3c-2.6-.2-7.1-1.2-11.1-5l-1.2-1.2-1.2-1.2c-3.8-3.9-4.8-8.4-5-11v-81.6c.1-2.4.9-7.7,5.4-12.2l1.7-1.7,1.7-1.7c4.2-4.2,9.2-5.2,11.8-5.3h84.3c9,0,16.3-7.3,16.3-16.3v-84h0s-.7-7.2,5.1-13.3l1.2-1.2,1.2-1.2c4.5-4.3,9.7-5,12.1-5.1h.8c.3,0,.5,0,.5,0h0s38.6,0,72.4,0,73.2,24.3,92.9,60.6c11.8,21.7,18.3,37.2,13.3,82.8Z"/>
  <path class="st1" d="M480.2,882.4c-4.7,14.8-6.1,40.7-6.1,54.6,0,8,1.8,18.2,1.8,18.2,2,4.5,9.9,15.6,23.4,15.6h67c10.3,0,27.1-5.1,27.1-30.1v-110.4c0-10.5,3.1-32.2,27.1-36.2,0,0,0,0,0,0-56.6-1.3-81.9,12.7-103.4,31.9s-33.1,44.4-36.9,56.3Z"/>
</svg>